<?xml version="1.0" encoding="utf-8"?>
<!-- Generator: Adobe Illustrator 19.1.0, SVG Export Plug-In . SVG Version: 6.00 Build 0)  -->
<svg version="1.1" id="Layer_1" xmlns:sketch="http://www.bohemiancoding.com/sketch/ns"
	 xmlns="http://www.w3.org/2000/svg" xmlns:xlink="http://www.w3.org/1999/xlink" x="0px" y="0px" viewBox="-213 382.1 184 29.9"
	 style="enable-background:new -213 382.1 184 29.9;" xml:space="preserve">
<style type="text/css">
	.st0{fill:#06363D;}
	.st1{fill:#06373D;}
</style>
<title>Path 2 Copy 10 + Path 2 Copy 9 + Spacefinder + Path 174 + Path 175</title>
<desc>Created with Sketch.</desc>
<g id="Welcome" sketch:type="MSPage">
	<g id="Spacefinder-Map-Tablet" transform="translate(-420.000000, -24.000000)" sketch:type="MSArtboardGroup">
		
			<g id="Path-2-Copy-10-_x2B_-Path-2-Copy-9-_x2B_-Spacefinder-_x2B_-Path-174-_x2B_-Path-175" transform="translate(420.000000, 25.000000)" sketch:type="MSLayerGroup">
			
				<g id="Path-2-Copy-10-_x2B_-Path-2-Copy-9-_x2B_-Spacefinder" transform="translate(20.397969, 0.000000)" sketch:type="MSShapeGroup">
				<path id="Spacefinder" class="st0" d="M-207.7,385.9c-0.6,0.4-0.9,1-0.9,1.7c0,0.8,0.3,1.4,0.9,1.8s1.9,0.9,3.8,1.3
					c1.9,0.5,3.4,1.1,4.4,2c1,0.9,1.5,2.1,1.5,3.8c0,1.7-0.6,3-1.9,4.1c-1.3,1-2.9,1.6-4.9,1.6c-3,0-5.6-1-7.9-3.1l2-2.4
					c1.9,1.7,3.9,2.5,6,2.5c1,0,1.9-0.2,2.5-0.7c0.6-0.4,0.9-1,0.9-1.8c0-0.7-0.3-1.3-0.9-1.7c-0.6-0.4-1.6-0.8-3-1.1
					s-2.5-0.6-3.2-0.9c-0.7-0.3-1.4-0.6-1.9-1.1c-1.1-0.9-1.7-2.2-1.7-3.9s0.6-3.1,1.9-4.1c1.3-1,2.9-1.4,4.7-1.4
					c1.2,0,2.4,0.2,3.6,0.6c1.2,0.4,2.2,1,3.1,1.7l-1.7,2.4c-0.6-0.5-1.3-0.9-2.3-1.3c-1-0.3-1.9-0.5-2.8-0.5
					S-207.1,385.5-207.7,385.9L-207.7,385.9z M-181.7,389.1c1.4,1.3,2.1,3.1,2.1,5.4c0,2.2-0.7,4.1-2.1,5.5c-1.4,1.4-3,2.1-4.8,2.1
					c-1.8,0-3.5-0.8-4.9-2.4v7.5h-3v-19.8h3v2.5c1.2-1.8,2.8-2.8,4.7-2.8S-183.1,387.8-181.7,389.1L-181.7,389.1z M-190.2,398
					c0.8,0.9,1.8,1.3,3,1.3s2.2-0.4,3.1-1.3c0.9-0.9,1.3-2,1.3-3.4c0-1.4-0.4-2.5-1.3-3.5s-1.9-1.4-3.1-1.4c-1.2,0-2.2,0.5-3.1,1.4
					c-0.8,0.9-1.3,2.1-1.3,3.4C-191.4,396-191,397.1-190.2,398L-190.2,398z M-164.4,401.8h-2.8v-1.9c-1.2,1.4-2.8,2.2-4.8,2.2
					c-1.5,0-2.8-0.4-3.7-1.3s-1.5-2-1.5-3.4c0-1.4,0.5-2.5,1.6-3.2c1.1-0.7,2.5-1.1,4.3-1.1h3.9v-0.5c0-1.9-1.1-2.9-3.2-2.9
					c-1.3,0-2.7,0.5-4.2,1.5l-1.4-1.9c1.8-1.4,3.8-2.1,6-2.1c1.7,0,3.1,0.4,4.2,1.3s1.6,2.2,1.6,4.1V401.8z M-167.5,396.4v-1.2h-3.4
					c-2.2,0-3.3,0.7-3.3,2.1c0,0.7,0.3,1.2,0.8,1.6c0.5,0.4,1.3,0.6,2.3,0.6s1.8-0.3,2.5-0.8C-167.8,398.1-167.5,397.4-167.5,396.4
					L-167.5,396.4z M-153.8,402.1c-2,0-3.7-0.7-5.2-2.1c-1.5-1.4-2.2-3.2-2.2-5.4c0-2.2,0.8-4,2.3-5.4c1.5-1.4,3.4-2.1,5.5-2.1
					c2.2,0,4,0.8,5.5,2.3l-1.8,2.2c-1.3-1.1-2.5-1.6-3.8-1.6s-2.4,0.4-3.3,1.3s-1.4,1.9-1.4,3.3s0.5,2.5,1.4,3.4s2.1,1.4,3.4,1.4
					c1.4,0,2.6-0.6,3.8-1.9l1.8,2C-149.4,401.2-151.5,402.1-153.8,402.1L-153.8,402.1z M-131,395.9h-11.3c0.1,1.1,0.6,1.9,1.4,2.5
					c0.9,0.6,1.9,1,3,1c1.8,0,3.2-0.6,4.1-1.7l1.7,1.9c-1.6,1.6-3.6,2.4-6.1,2.4c-2,0-3.8-0.7-5.2-2c-1.4-1.4-2.1-3.2-2.1-5.5
					s0.7-4.1,2.2-5.4c1.5-1.3,3.2-2,5.1-2s3.6,0.6,5,1.8s2.1,2.8,2.1,4.9V395.9z M-142.4,393.5h8.3c0-1.2-0.4-2.2-1.1-2.8
					c-0.8-0.7-1.7-1-2.8-1s-2.1,0.3-3,1S-142.4,392.4-142.4,393.5L-142.4,393.5z M-124.1,386.1v1.2h3.8v2.5h-3.8v12.1h-3v-12.1h-1.8
					v-2.5h1.8v-1.1c0-1.5,0.5-2.7,1.4-3.6c0.9-0.9,2-1.4,3.3-1.4s2.5,0.5,3.5,1.4l-1.3,2.2c-0.6-0.6-1.2-1-1.9-1
					c-0.7,0-1.2,0.2-1.5,0.6S-124.1,385.4-124.1,386.1L-124.1,386.1z M-114.3,401.8h-3v-14.5h3V401.8z M-117.7,383.1
					c0-0.5,0.2-1,0.6-1.4c0.4-0.4,0.8-0.6,1.4-0.6c0.5,0,1,0.2,1.4,0.6c0.4,0.4,0.6,0.8,0.6,1.4s-0.2,1-0.6,1.4
					c-0.4,0.4-0.8,0.6-1.4,0.6c-0.5,0-1-0.2-1.4-0.6C-117.5,384.1-117.7,383.6-117.7,383.1L-117.7,383.1z M-106.8,394v7.9h-3v-14.5
					h3v2.6c0.5-0.9,1.2-1.6,2-2.1s1.8-0.8,2.8-0.8c1.6,0,3,0.5,4,1.5s1.5,2.4,1.5,4.3v8.9h-3v-8c0-2.7-1.1-4-3.3-4
					c-1.1,0-2,0.4-2.7,1.1C-106.4,391.6-106.8,392.6-106.8,394L-106.8,394z M-91.2,400c-1.4-1.4-2-3.2-2-5.5c0-2.3,0.7-4.1,2.1-5.4
					c1.4-1.3,3.1-2,5-2s3.5,0.8,4.7,2.5v-8h3v20.2h-3v-2.2c-1.1,1.6-2.8,2.4-4.9,2.4C-88.2,402.1-89.8,401.4-91.2,400L-91.2,400z
					 M-88.8,398c0.9,0.9,1.9,1.3,3.1,1.3s2.2-0.4,3-1.3c0.8-0.9,1.3-2,1.3-3.4s-0.4-2.5-1.3-3.5c-0.8-0.9-1.9-1.4-3.1-1.4
					c-1.2,0-2.3,0.5-3.1,1.4c-0.9,0.9-1.3,2.1-1.3,3.5C-90.2,396-89.7,397.2-88.8,398L-88.8,398z M-60.6,395.9h-11.3
					c0.1,1.1,0.6,1.9,1.4,2.5c0.9,0.6,1.9,1,3,1c1.8,0,3.2-0.6,4.1-1.7l1.7,1.9c-1.6,1.6-3.6,2.4-6.1,2.4c-2,0-3.8-0.7-5.2-2
					c-1.4-1.4-2.1-3.2-2.1-5.5s0.7-4.1,2.2-5.4c1.5-1.3,3.2-2,5.1-2s3.6,0.6,5,1.8s2.1,2.8,2.1,4.9V395.9z M-71.9,393.5h8.3
					c0-1.2-0.4-2.2-1.1-2.8c-0.8-0.7-1.7-1-2.8-1c-1.1,0-2.1,0.3-3,1S-71.9,392.4-71.9,393.5L-71.9,393.5z M-49.6,390.2
					c-1.5,0-2.6,0.5-3.4,1.5c-0.8,1-1.1,2.3-1.1,4v6.2h-3v-14.5h3v2.9c0.5-0.9,1.2-1.7,2-2.2c0.8-0.6,1.7-0.9,2.7-0.9l0,3.1H-49.6
					L-49.6,390.2z"/>
			</g>
			<path id="Path-174" sketch:type="MSShapeGroup" class="st1" d="M-196.5,392.4l-6.1,10.6l4.6,7.9L-196.5,392.4z"/>
			<path id="Path-175" sketch:type="MSShapeGroup" class="st1" d="M-197.3,391.6l-6.1,10.7l-9.5,0L-197.3,391.6z"/>
		</g>
	</g>
</g>
</svg>
