<?xml version="1.0" encoding="UTF-8" standalone="no"?>
<svg width="184px" height="31px" viewBox="0 0 184 31" version="1.1" xmlns="http://www.w3.org/2000/svg" xmlns:xlink="http://www.w3.org/1999/xlink" xmlns:sketch="http://www.bohemiancoding.com/sketch/ns">
    <!-- Generator: Sketch 3.3.3 (12081) - http://www.bohemiancoding.com/sketch -->
    <title>Path 2 Copy 10 + Path 2 Copy 9 + Spacefinder + Path 174 + Path 175</title>
    <desc>Created with Sketch.</desc>
    <defs></defs>
    <g id="Welcome" stroke="none" stroke-width="1" fill="none" fill-rule="evenodd" sketch:type="MSPage">
        <g id="Spacefinder-Map-Tablet" sketch:type="MSArtboardGroup" transform="translate(-420.000000, -24.000000)">
            <g id="Path-2-Copy-10-+-Path-2-Copy-9-+-Spacefinder-+-Path-174-+-Path-175" sketch:type="MSLayerGroup" transform="translate(420.000000, 25.000000)">
                <g id="Path-2-Copy-10-+-Path-2-Copy-9-+-Spacefinder" transform="translate(20.397969, 0.000000)" fill="#06363D" sketch:type="MSShapeGroup">
                    <path d="M5.33671311,4.85151515 C4.73836969,5.23333524 4.43920247,5.8106022 4.43920247,6.58333333 C4.43920247,7.35606447 4.73836969,7.94696765 5.33671311,8.35606061 C5.93505653,8.76515356 7.20878364,9.20605824 9.15793266,9.67878788 C11.1070817,10.1515175 12.5757208,10.8151472 13.563894,11.669697 C14.5520672,12.5242467 15.0461464,13.783325 15.0461464,15.4469697 C15.0461464,17.1106144 14.420615,18.4606009 13.1695333,19.4969697 C11.9184516,20.5333385 10.2775647,21.0515152 8.24682337,21.0515152 C5.27323789,21.0515152 2.63512693,20.0242527 0.332411349,17.969697 L2.34501097,15.5424242 C4.26696256,17.2151599 6.26141071,18.0515152 8.32841525,18.0515152 C9.36191752,18.0515152 10.182361,17.8287901 10.7897702,17.3833333 C11.3971794,16.9378766 11.7008795,16.3469734 11.7008795,15.6106061 C11.7008795,14.8742387 11.4153108,14.3015172 10.8441648,13.8924242 C10.2730188,13.4833313 9.28939322,13.1106077 7.89325858,12.7742424 C6.49712393,12.4378771 5.43644014,12.1287893 4.71117539,11.8469697 C3.98591064,11.5651501 3.34224783,11.196972 2.78016765,10.7424242 C1.65600728,9.88787452 1.09393553,8.5787967 1.09393553,6.81515152 C1.09393553,5.05150633 1.73306551,3.69242902 3.01134463,2.73787879 C4.28962375,1.78332856 5.87158376,1.30606061 7.75727212,1.30606061 C8.97209057,1.30606061 10.1778251,1.50605861 11.374512,1.90606061 C12.5711988,2.30606261 13.6046856,2.86969333 14.4750033,3.5969697 L12.7615739,6.02424242 C12.1994937,5.51514897 11.4379771,5.09697133 10.4770013,4.76969697 C9.51602554,4.44242261 8.56866267,4.27878788 7.6348843,4.27878788 C6.70110593,4.27878788 5.93505653,4.46969506 5.33671311,4.85151515 L5.33671311,4.85151515 Z M31.3101271,8.12424242 C32.6881302,9.4697037 33.3771214,11.2605949 33.3771214,13.4969697 C33.3771214,15.7333445 32.692663,17.5515082 31.3237258,18.9515152 C29.9547886,20.3515222 28.3592301,21.0515152 26.5370024,21.0515152 C24.7147747,21.0515152 23.0784206,20.2515232 21.6278911,18.6515152 L21.6278911,26.1242424 L18.5817944,26.1242424 L18.5817944,6.32424242 L21.6278911,6.32424242 L21.6278911,8.86060606 C22.824578,7.02423324 24.3929395,6.10606061 26.3330227,6.10606061 C28.2731059,6.10606061 29.9321241,6.77878115 31.3101271,8.12424242 L31.3101271,8.12424242 Z M22.824572,17.0015152 C23.6586264,17.8833377 24.6739819,18.3242424 25.8706687,18.3242424 C27.0673556,18.3242424 28.109908,17.8878832 28.9983573,17.0151515 C29.8868066,16.1424199 30.3310246,15.010613 30.3310246,13.619697 C30.3310246,12.2287809 29.8958723,11.074247 29.0255546,10.1560606 C28.1552369,9.2378742 27.1126845,8.77878788 25.897866,8.77878788 C24.6830475,8.77878788 23.6586264,9.2378742 22.824572,10.1560606 C21.9905175,11.074247 21.5734965,12.2242355 21.5734965,13.6060606 C21.5734965,14.9878857 21.9905175,16.1196926 22.824572,17.0015152 L22.824572,17.0015152 Z M48.5804077,20.8333333 L45.8062839,20.8333333 L45.8062839,18.8969697 C44.609597,20.3333405 43.0049729,21.0515152 40.9923632,21.0515152 C39.4874388,21.0515152 38.2409087,20.6242467 37.2527355,19.769697 C36.2645623,18.9151472 35.7704831,17.7742496 35.7704831,16.3469697 C35.7704831,14.9196898 36.2962921,13.8515187 37.347926,13.1424242 C38.3995599,12.4333298 39.8228706,12.0787879 41.6179009,12.0787879 L45.5615083,12.0787879 L45.5615083,11.5333333 C45.5615083,9.60605097 44.4917588,8.64242424 42.3522278,8.64242424 C41.010488,8.64242424 39.6143743,9.13332842 38.1638448,10.1151515 L36.8039802,8.20606061 C38.5627472,6.80605361 40.5571953,6.10606061 42.7873844,6.10606061 C44.4917566,6.10606061 45.8833375,6.53787447 46.9621688,7.40151515 C48.0410001,8.26515583 48.5804077,9.62423315 48.5804077,11.4787879 L48.5804077,20.8333333 Z M45.534311,15.4333333 L45.534311,14.2060606 L42.1074521,14.2060606 C39.9135263,14.2060606 38.8165798,14.8969628 38.8165798,16.2787879 C38.8165798,16.9878823 39.08855,17.528786 39.6324986,17.9015152 C40.1764471,18.2742443 40.9334308,18.4606061 41.9034725,18.4606061 C42.8735141,18.4606061 43.7211545,18.1878815 44.4464193,17.6424242 C45.171684,17.096967 45.534311,16.3606107 45.534311,15.4333333 L45.534311,15.4333333 Z M59.2417462,21.0515152 C57.2291365,21.0515152 55.4975929,20.3651584 54.0470634,18.9924242 C52.5965339,17.6196901 51.87128,15.8242535 51.87128,13.6060606 C51.87128,11.3878677 52.6282638,9.58334029 54.1422539,8.19242424 C55.6562441,6.8015082 57.5011086,6.10606061 59.6769029,6.10606061 C61.8526972,6.10606061 63.6930289,6.86059852 65.1979532,8.36969697 L63.4029319,10.5787879 C62.1518502,9.48787333 60.8917216,8.94242424 59.6225083,8.94242424 C58.353295,8.94242424 57.2518157,9.36514729 56.3180373,10.2106061 C55.3842589,11.0560648 54.9173768,12.146963 54.9173768,13.4833333 C54.9173768,14.8197037 55.3797261,15.9515105 56.3044387,16.8787879 C57.2291512,17.8060652 58.3668932,18.269697 59.7176988,18.269697 C61.0685044,18.269697 62.3422315,17.6515213 63.5389184,16.4151515 L65.3339397,18.3787879 C63.5751726,20.160615 61.5444618,21.0515152 59.2417462,21.0515152 L59.2417462,21.0515152 Z M81.9514852,14.9151515 L70.6102144,14.9151515 C70.6827408,15.9697022 71.1632215,16.8196937 72.0516708,17.4651515 C72.9401202,18.1106093 73.9554756,18.4333333 75.0977676,18.4333333 C76.9109294,18.4333333 78.2889118,17.8606118 79.231756,16.7151515 L80.9723827,18.6242424 C79.4130635,20.2424323 77.3823526,21.0515152 74.8801892,21.0515152 C72.8494479,21.0515152 71.1224371,20.3742492 69.6991051,19.019697 C68.275773,17.6651447 67.5641176,15.8469811 67.5641176,13.5651515 C67.5641176,11.2833219 68.2893715,9.4697037 69.739901,8.12424242 C71.1904305,6.77878115 72.8993099,6.10606061 74.8665906,6.10606061 C76.8338712,6.10606061 78.506488,6.7015092 79.884491,7.89242424 C81.262494,9.08333929 81.9514852,10.724232 81.9514852,12.8151515 L81.9514852,14.9151515 Z M70.6102144,12.5151515 L78.9053885,12.5151515 C78.9053885,11.2969636 78.5246302,10.3606093 77.7631022,9.70606061 C77.0015742,9.05151188 76.063277,8.72424242 74.9481825,8.72424242 C73.8330879,8.72424242 72.831331,9.06514811 71.9428817,9.7469697 C71.0544324,10.4287913 70.6102144,11.3515093 70.6102144,12.5151515 L70.6102144,12.5151515 Z M88.9411893,5.12424242 L88.9411893,6.32424242 L92.7488102,6.32424242 L92.7488102,8.77878788 L88.9411893,8.77878788 L88.9411893,20.8333333 L85.8950926,20.8333333 L85.8950926,8.77878788 L84.072874,8.77878788 L84.072874,6.32424242 L85.8950926,6.32424242 L85.8950926,5.20606061 C85.8950926,3.67878024 86.3529091,2.46515602 87.2685558,1.56515152 C88.1842026,0.665147015 89.2902147,0.215151515 90.5866255,0.215151515 C91.8830362,0.215151515 93.0661066,0.696964879 94.1358721,1.66060606 L92.8847967,3.81515152 C92.2864532,3.1787847 91.6609218,2.86060606 91.0081835,2.86060606 C90.3554452,2.86060606 89.8477675,3.06514947 89.4851351,3.47424242 C89.1225028,3.88333538 88.9411893,4.43332988 88.9411893,5.12424242 L88.9411893,5.12424242 Z M98.7322145,20.8333333 L95.6861178,20.8333333 L95.6861178,6.32424242 L98.7322145,6.32424242 L98.7322145,20.8333333 Z M95.3053557,2.06969697 C95.3053557,1.54242161 95.4957348,1.0878807 95.8764988,0.706060606 C96.2572628,0.324240515 96.7105465,0.133333333 97.2363634,0.133333333 C97.7621803,0.133333333 98.215464,0.324240515 98.596228,0.706060606 C98.976992,1.0878807 99.1673711,1.54242161 99.1673711,2.06969697 C99.1673711,2.59697233 98.976992,3.05151324 98.596228,3.43333333 C98.215464,3.81515342 97.7621803,4.00606061 97.2363634,4.00606061 C96.7105465,4.00606061 96.2572628,3.81515342 95.8764988,3.43333333 C95.4957348,3.05151324 95.3053557,2.59697233 95.3053557,2.06969697 L95.3053557,2.06969697 Z M106.184273,12.9787879 L106.184273,20.8333333 L103.138176,20.8333333 L103.138176,6.32424242 L106.184273,6.32424242 L106.184273,8.96969697 C106.673826,8.07878342 107.349219,7.37879042 108.210471,6.86969697 C109.071723,6.36060352 110.000954,6.10606061 110.998193,6.10606061 C112.630039,6.10606061 113.949094,6.60605561 114.955399,7.60606061 C115.961704,8.60606561 116.464849,10.0515057 116.464849,11.9424242 L116.464849,20.8333333 L113.418752,20.8333333 L113.418752,12.869697 C113.418752,10.1969563 112.31274,8.86060606 110.100683,8.86060606 C109.049049,8.86060606 108.133416,9.21060256 107.353756,9.91060606 C106.574096,10.6106096 106.184273,11.6333266 106.184273,12.9787879 L106.184273,12.9787879 Z M121.822716,18.9787879 C120.462844,17.5969628 119.782919,15.7787992 119.782919,13.5242424 C119.782919,11.2696857 120.480975,9.4697037 121.87711,8.12424242 C123.273245,6.77878115 124.936796,6.10606061 126.867813,6.10606061 C128.798831,6.10606061 130.353594,6.92423424 131.532149,8.56060606 L131.532149,0.596969697 L134.578246,0.596969697 L134.578246,20.8333333 L131.532149,20.8333333 L131.532149,18.6515152 C130.407988,20.2515232 128.767102,21.0515152 126.609439,21.0515152 C124.778145,21.0515152 123.182587,20.360613 121.822716,18.9787879 L121.822716,18.9787879 Z M124.161683,17.0424242 C125.050132,17.9151559 126.092684,18.3515152 127.289371,18.3515152 C128.486058,18.3515152 129.501414,17.9106105 130.335468,17.0287879 C131.169522,16.1469653 131.586543,15.0151584 131.586543,13.6333333 C131.586543,12.2515082 131.169522,11.0969743 130.335468,10.169697 C129.501414,9.24241961 128.476992,8.77878788 127.262174,8.77878788 C126.047356,8.77878788 125.004803,9.24241961 124.134485,10.169697 C123.264168,11.0969743 122.829015,12.2560537 122.829015,13.6469697 C122.829015,15.0378857 123.273233,16.1696926 124.161683,17.0424242 L124.161683,17.0424242 Z M152.446867,14.9151515 L141.105596,14.9151515 C141.178122,15.9697022 141.658603,16.8196937 142.547052,17.4651515 C143.435502,18.1106093 144.450857,18.4333333 145.593149,18.4333333 C147.406311,18.4333333 148.784293,17.8606118 149.727137,16.7151515 L151.467764,18.6242424 C149.908445,20.2424323 147.877734,21.0515152 145.375571,21.0515152 C143.344829,21.0515152 141.617818,20.3742492 140.194486,19.019697 C138.771154,17.6651447 138.059499,15.8469811 138.059499,13.5651515 C138.059499,11.2833219 138.784753,9.4697037 140.235282,8.12424242 C141.685812,6.77878115 143.394691,6.10606061 145.361972,6.10606061 C147.329253,6.10606061 149.001869,6.7015092 150.379872,7.89242424 C151.757875,9.08333929 152.446867,10.724232 152.446867,12.8151515 L152.446867,14.9151515 Z M141.105596,12.5151515 L149.40077,12.5151515 C149.40077,11.2969636 149.020012,10.3606093 148.258484,9.70606061 C147.496956,9.05151188 146.558658,8.72424242 145.443564,8.72424242 C144.328469,8.72424242 143.326712,9.06514811 142.438263,9.7469697 C141.549814,10.4287913 141.105596,11.3515093 141.105596,12.5151515 L141.105596,12.5151515 Z M163.380178,9.18787879 C161.875254,9.18787879 160.742044,9.67878297 159.980516,10.6606061 C159.218988,11.6424292 158.83823,12.9605978 158.83823,14.6151515 L158.83823,20.8333333 L155.792133,20.8333333 L155.792133,6.32424242 L158.83823,6.32424242 L158.83823,9.24242424 C159.327784,8.33332879 159.994111,7.5878817 160.837231,7.00606061 C161.680351,6.42423952 162.57332,6.12424252 163.516164,6.10606061 L163.543362,9.18787879 L163.380178,9.18787879 L163.380178,9.18787879 Z" id="Spacefinder"></path>
                </g>
                <path d="M16.4672949,11.4036976 L10.3407294,22.0510032 L14.9210134,29.9288848 L16.4672949,11.4036976 Z" id="Path-174" fill="#06373D" sketch:type="MSShapeGroup"></path>
                <path d="M15.7379134,10.6293834 L9.67682519,21.2799257 L0.151059179,21.2677187 L15.7379134,10.6293834 Z" id="Path-175" fill="#06373D" sketch:type="MSShapeGroup"></path>
            </g>
        </g>
    </g>
</svg>