<?xml version="1.0" encoding="utf-8"?>
<!-- Generator: Adobe Illustrator 19.2.0, SVG Export Plug-In . SVG Version: 6.00 Build 0)  -->
<svg version="1.1" id="Layer_1" xmlns:sketch="http://www.bohemiancoding.com/sketch/ns"
	 xmlns="http://www.w3.org/2000/svg" xmlns:xlink="http://www.w3.org/1999/xlink" x="0px" y="0px" viewBox="0 0 184 29.9"
	 style="enable-background:new 0 0 184 29.9;" xml:space="preserve">
<style type="text/css">
	.st0{fill:#06363D;}
	.st1{fill:#06373D;}
</style>
<title>Path 2 Copy 10 + Path 2 Copy 9 + Spacefinder + Path 174 + Path 175</title>
<desc>Created with Sketch.</desc>
<g id="Welcome" sketch:type="MSPage">
	<g id="Spacefinder-Map-Tablet" transform="translate(-420.000000, -24.000000)" sketch:type="MSArtboardGroup">
		
			<g id="Path-2-Copy-10-_x2B_-Path-2-Copy-9-_x2B_-Spacefinder-_x2B_-Path-174-_x2B_-Path-175" transform="translate(420.000000, 25.000000)" sketch:type="MSLayerGroup">
			
				<g id="Path-2-Copy-10-_x2B_-Path-2-Copy-9-_x2B_-Spacefinder" transform="translate(20.397969, 0.000000)" sketch:type="MSShapeGroup">
				<path id="Spacefinder" class="st0" d="M5.3,3.8c-0.6,0.4-0.9,1-0.9,1.7c0,0.8,0.3,1.4,0.9,1.8s1.9,0.9,3.8,1.3
					c1.9,0.5,3.4,1.1,4.4,2s1.5,2.1,1.5,3.8c0,1.7-0.6,3-1.9,4.1c-1.3,1-2.9,1.6-4.9,1.6c-3,0-5.6-1-7.9-3.1l2-2.4
					c1.9,1.7,3.9,2.5,6,2.5c1,0,1.9-0.2,2.5-0.7c0.6-0.4,0.9-1,0.9-1.8c0-0.7-0.3-1.3-0.9-1.7c-0.6-0.4-1.6-0.8-3-1.1
					s-2.5-0.6-3.2-0.9s-1.4-0.6-1.9-1.1C1.6,8.9,1,7.6,1,5.9s0.6-3.1,1.9-4.1c1.3-1,2.9-1.4,4.7-1.4c1.2,0,2.4,0.2,3.6,0.6
					c1.2,0.4,2.2,1,3.1,1.7l-1.7,2.4c-0.6-0.5-1.3-0.9-2.3-1.3c-1-0.3-1.9-0.5-2.8-0.5S5.9,3.4,5.3,3.8L5.3,3.8z M31.3,7.1
					c1.4,1.3,2.1,3.1,2.1,5.4c0,2.2-0.7,4.1-2.1,5.5c-1.4,1.4-3,2.1-4.8,2.1s-3.5-0.8-4.9-2.4v7.5h-3V5.4h3v2.5
					c1.2-1.8,2.8-2.8,4.7-2.8S29.9,5.7,31.3,7.1L31.3,7.1z M22.8,15.9c0.8,0.9,1.8,1.3,3,1.3s2.2-0.4,3.1-1.3c0.9-0.9,1.3-2,1.3-3.4
					s-0.4-2.5-1.3-3.5S27,7.7,25.8,7.7c-1.2,0-2.2,0.5-3.1,1.4c-0.8,0.9-1.3,2.1-1.3,3.4C21.6,13.9,22,15.1,22.8,15.9L22.8,15.9z
					 M48.6,19.7h-2.8v-1.9c-1.2,1.4-2.8,2.2-4.8,2.2c-1.5,0-2.8-0.4-3.7-1.3s-1.5-2-1.5-3.4s0.5-2.5,1.6-3.2s2.5-1.1,4.3-1.1h3.9
					v-0.5c0-1.9-1.1-2.9-3.2-2.9c-1.3,0-2.7,0.5-4.2,1.5l-1.4-1.9c1.8-1.4,3.8-2.1,6-2.1c1.7,0,3.1,0.4,4.2,1.3s1.6,2.2,1.6,4.1
					L48.6,19.7L48.6,19.7z M45.5,14.3v-1.2h-3.4c-2.2,0-3.3,0.7-3.3,2.1c0,0.7,0.3,1.2,0.8,1.6s1.3,0.6,2.3,0.6s1.8-0.3,2.5-0.8
					C45.2,16.1,45.5,15.3,45.5,14.3L45.5,14.3z M59.2,20.1c-2,0-3.7-0.7-5.2-2.1s-2.2-3.2-2.2-5.4c0-2.2,0.8-4,2.3-5.4
					s3.4-2.1,5.5-2.1c2.2,0,4,0.8,5.5,2.3l-1.8,2.2c-1.3-1.1-2.5-1.6-3.8-1.6s-2.4,0.4-3.3,1.3s-1.4,1.9-1.4,3.3s0.5,2.5,1.4,3.4
					c0.9,0.9,2.1,1.4,3.4,1.4c1.4,0,2.6-0.6,3.8-1.9l1.8,2C63.6,19.2,61.5,20.1,59.2,20.1L59.2,20.1z M82,13.8H70.7
					c0.1,1.1,0.6,1.9,1.4,2.5c0.9,0.6,1.9,1,3,1c1.8,0,3.2-0.6,4.1-1.7l1.7,1.9c-1.6,1.6-3.6,2.4-6.1,2.4c-2,0-3.8-0.7-5.2-2
					c-1.4-1.4-2.1-3.2-2.1-5.5s0.7-4.1,2.2-5.4s3.2-2,5.1-2s3.6,0.6,5,1.8s2.1,2.8,2.1,4.9v2.1H82z M70.6,11.4h8.3
					c0-1.2-0.4-2.2-1.1-2.8c-0.8-0.7-1.7-1-2.8-1s-2.1,0.3-3,1S70.6,10.3,70.6,11.4L70.6,11.4z M88.9,4.1v1.2h3.8v2.5h-3.8v12.1h-3
					V7.8h-1.8V5.3h1.8V4.2c0-1.5,0.5-2.7,1.4-3.6s2-1.4,3.3-1.4s2.5,0.5,3.5,1.4l-1.3,2.2c-0.6-0.6-1.2-1-1.9-1
					c-0.7,0-1.2,0.2-1.5,0.6S88.9,3.3,88.9,4.1L88.9,4.1z M98.7,19.7h-3V5.2h3V19.7z M95.3,1.1c0-0.5,0.2-1,0.6-1.4s0.8-0.6,1.4-0.6
					c0.5,0,1,0.2,1.4,0.6s0.6,0.8,0.6,1.4s-0.2,1-0.6,1.4s-0.8,0.6-1.4,0.6c-0.5,0-1-0.2-1.4-0.6S95.3,1.6,95.3,1.1L95.3,1.1z
					 M106.2,11.9v7.9h-3V5.3h3v2.6c0.5-0.9,1.2-1.6,2-2.1s1.8-0.8,2.8-0.8c1.6,0,3,0.5,4,1.5s1.5,2.4,1.5,4.3v8.9h-3v-8
					c0-2.7-1.1-4-3.3-4c-1.1,0-2,0.4-2.7,1.1C106.6,9.6,106.2,10.6,106.2,11.9L106.2,11.9z M121.8,18c-1.4-1.4-2-3.2-2-5.5
					s0.7-4.1,2.1-5.4s3.1-2,5-2s3.5,0.8,4.7,2.5v-8h3v20.2h-3v-2.2c-1.1,1.6-2.8,2.4-4.9,2.4C124.8,20.1,123.2,19.3,121.8,18
					L121.8,18z M124.2,15.9c0.9,0.9,1.9,1.3,3.1,1.3c1.2,0,2.2-0.4,3-1.3c0.8-0.9,1.3-2,1.3-3.4s-0.4-2.5-1.3-3.5
					c-0.8-0.9-1.9-1.4-3.1-1.4s-2.3,0.5-3.1,1.4c-0.9,0.9-1.3,2.1-1.3,3.5C122.8,13.9,123.3,15.2,124.2,15.9L124.2,15.9z
					 M152.4,13.8h-11.3c0.1,1.1,0.6,1.9,1.4,2.5c0.9,0.6,1.9,1,3,1c1.8,0,3.2-0.6,4.1-1.7l1.7,1.9c-1.6,1.6-3.6,2.4-6.1,2.4
					c-2,0-3.8-0.7-5.2-2c-1.4-1.4-2.1-3.2-2.1-5.5s0.7-4.1,2.2-5.4s3.2-2,5.1-2c1.9,0,3.6,0.6,5,1.8c1.4,1.2,2.1,2.8,2.1,4.9v2.1
					H152.4z M141.1,11.4h8.3c0-1.2-0.4-2.2-1.1-2.8c-0.8-0.7-1.7-1-2.8-1s-2.1,0.3-3,1C141.6,9.4,141.1,10.3,141.1,11.4L141.1,11.4z
					 M163.4,8.2c-1.5,0-2.6,0.5-3.4,1.5s-1.1,2.3-1.1,4v6.2h-3V5.4h3v2.9c0.5-0.9,1.2-1.7,2-2.2c0.8-0.6,1.7-0.9,2.7-0.9v3.1h-0.2
					V8.2z"/>
			</g>
			<path id="Path-174" sketch:type="MSShapeGroup" class="st1" d="M16.5,6.3L10.4,17l4.6,7.9L16.5,6.3z"/>
			<path id="Path-175" sketch:type="MSShapeGroup" class="st1" d="M15.7,5.6L9.6,16.3H0.1L15.7,5.6z"/>
		</g>
	</g>
</g>
</svg>
